<svg id="Group_50" data-name="Group 50" xmlns="http://www.w3.org/2000/svg" xmlns:xlink="http://www.w3.org/1999/xlink" width="134.775" height="119.651" viewBox="0 0 134.775 119.651">
  <defs>
    <clipPath id="clip-path">
      <rect id="Rectangle_213" data-name="Rectangle 213" width="134.775" height="119.651" fill="none"/>
    </clipPath>
  </defs>
  <g id="Group_49" data-name="Group 49" clip-path="url(#clip-path)">
    <path id="Path_23" data-name="Path 23" d="M69.851,10l-9.574,2.3L4.312,112.113,6.755,123.48l7.391-2.4H129.6c.962,0,2.737-2.854,2.737-2.854l1.956-6.109L76.164,10Z" transform="translate(-2.463 -5.713)" fill="#ada79e"/>
    <path id="Path_24" data-name="Path 24" d="M123.093,119.651H11.682c-4.9,0-8.629-1.775-10.49-5s-1.536-7.337.916-11.584L57.814,6.585C60.266,2.339,63.666,0,67.388,0s7.122,2.339,9.574,6.585l55.7,96.484c2.452,4.247,2.778,8.36.917,11.584s-5.586,5-10.49,5M67.388,4.287c-2.126,0-4.207,1.577-5.861,4.442L5.822,105.213c-1.654,2.864-1.979,5.456-.916,7.3s3.47,2.854,6.777,2.854h111.41c3.308,0,5.715-1.014,6.777-2.854s.737-4.432-.917-7.3L73.248,8.729c-1.654-2.864-3.735-4.442-5.86-4.442" transform="translate(0)" fill="#2b496f"/>
    <path id="Path_25" data-name="Path 25" d="M145.987,133.542a4.138,4.138,0,0,1-4.116-3.66c-1.351-9.42-2.737-18.836-4.1-28.254a12.375,12.375,0,0,1,.091-5.982c1.2-3.518,4.892-6.175,8.439-5.876a8.507,8.507,0,0,1,8.009,7.392,15.213,15.213,0,0,1-.132,3.651c-1.365,9.61-2.775,19.215-4.165,28.822-.35,2.419-1.85,3.89-4.024,3.907" transform="translate(-78.516 -51.27)" fill="#fff"/>
    <path id="Path_26" data-name="Path 26" d="M155.135,210.2a6.294,6.294,0,1,1-12.585-.06A6.228,6.228,0,0,1,148.667,204a6.293,6.293,0,0,1,6.468,6.2" transform="translate(-81.434 -116.536)" fill="#fff"/>
  </g>
</svg>
